<?xml version="1.0" encoding="UTF-8"?><svg id="Layer_2" xmlns="http://www.w3.org/2000/svg" viewBox="0 0 232.9 144.4"><g id="Layer_2-2"><path d="M232.9,31.4c0,3.6-.5,7.5-1.4,11.8-1,4.3-1.9,6.4-2.8,6.4-.7,0-1-.3-1-1,0-.2.1-.5.2-.9,1.9-4.8,2.8-10,2.8-15.6,0-8.7-2.6-15.7-7.8-20.9-5.2-5.3-12-7.9-20.5-7.9-11.4,0-23.1,3.8-35.1,11.3,9.6,7.2,14.5,15.5,14.5,25.1,0,15.4-10.4,24.5-31.3,27.4,17.1,6,25.7,17,25.7,32.9,0,11.8-5.1,22.2-15.1,31.1-10.1,8.9-21.9,13.3-35.4,13.3-6.5,0-11.6-1.7-15.4-5s-5.7-7.9-5.7-13.6c0-8.8,4-17.5,12.1-26.2,8.1-8.6,16.2-13,24.4-13,4.5,0,8.3,1.4,11.2,4.3,2.9,2.9,4.3,6.5,4.3,11,0,2.7-.8,6-2.5,10s-3,6-4,6c-.8,0-1.1-.3-1.1-.8,0-.3.1-.7.4-1.2,3.6-5.2,5.4-9.9,5.4-14.1,0-3.9-1.3-7.1-3.8-9.5s-5.9-3.6-10-3.6c-7.8,0-15.4,4.1-22.8,12.3-7.4,8.2-11.1,16.6-11.1,25.1,0,4.6,1.6,8.3,4.6,11.4s6.9,4.6,11.6,4.6c10.5,0,20.2-5.1,28.9-15.3,8.8-10.2,13.1-21.5,13.1-33.7,0-11.4-5.5-19.8-16.5-25.2l-6,.7c-1.6.2-3.3.3-5,.3-5.2,0-7.9-.9-7.9-2.6,0-1.2,2.2-1.9,6.5-1.9,3.1,0,7.2.6,12.3,1.9,7.2-2.2,12.8-6.1,17-11.6s6.2-11.8,6.2-19-2.6-13.1-7.9-18.7c-15.1,11.6-29.3,31.2-42.6,58.9-8.2,17-15.7,29.3-22.5,37-6.6,7.4-16,14.1-28.2,20.1-14.4,7-27.2,10.5-38.5,10.5-9.2,0-16.9-2.1-23-6.4-6.1-4.2-9.2-9.5-9.2-15.9,0-3.5,1-6.5,3.2-9.1,2.1-2.6,4.6-3.8,7.5-3.8,4.2,0,6.3,2.3,6.3,7,0,2.3-.7,4.3-2.1,6-1.4,1.6-3.2,2.5-5.2,2.5-3.6,0-5.3-1.9-5.2-5.6.1-1.5-.1-2.3-.4-2.3-1.1,0-1.7,1.8-1.7,5.5,0,5.7,2.8,10.5,8.4,14.2,5.6,3.8,12.7,5.7,21.2,5.7,15.1,0,28.8-5.6,41-16.7,5.3-4.8,9.9-9.9,13.8-15.1,3.9-5.3,12.9-18.6,27-40.1,6.8-10.3,15-20.7,24.6-31.3,9.6-10.6,17.6-18.1,24.1-22.6-10.9-9.2-26.6-13.7-47.3-13.7-29.1,0-54.3,10.5-75.8,31.5-17.6,17.2-26.4,33.4-26.4,48.7,0,7.7,2.5,13.8,7.4,18.4s11.7,6.8,20.1,6.8c13.8,0,28.2-6.6,42.9-19.9,14.8-13.3,22.2-26.2,22.2-38.7,0-10-5.1-15-15.4-15s-21.3,5.7-33,17.1-17.6,22.1-17.6,32.2c0,2.5.8,4.6,2.5,6.4s3.6,2.7,5.8,2.7c1.2.2,1.8.5,1.8.8,0,.6-.7.9-2,.9-3.3,0-6.1-1.5-8.4-4.5s-3.4-6.7-3.4-11c0-10.7,5.9-21.1,17.7-31.2,11.8-10.2,23.9-15.2,36.3-15.2s17.8,5.5,17.8,16.4c0,13.4-7.5,26.9-22.6,40.5-15.1,13.6-30,20.4-44.6,20.4-9.6,0-17.2-2.9-23-8.6-5.8-5.8-8.6-13.4-8.6-23.1,0-19.5,11-37.3,33-53.3C63.9,8.1,88.2,0,114.9,0c20,0,37.1,4.5,51,13.5,12.6-7.8,24.8-11.8,36.6-11.8,9.2,0,16.6,2.8,22.3,8.3,5.3,5.1,8.1,12.4,8.1,21.4" style="fill:#1f8e91;"/></g></svg>